<?xml version="1.0" encoding="utf-8"?>
<!-- Generator: Adobe Illustrator 25.2.1, SVG Export Plug-In . SVG Version: 6.00 Build 0)  -->
<svg version="1.1" id="Capa_1" xmlns="http://www.w3.org/2000/svg" xmlns:xlink="http://www.w3.org/1999/xlink" x="0px" y="0px"
	 viewBox="0 0 13.9 12.3" style="enable-background:new 0 0 13.9 12.3;" xml:space="preserve">
<style type="text/css">
	.st0{fill:#1D1D1B;}
</style>
<g>
	<path class="st0" d="M13.1,1.6H0.8C0.4,1.6,0,1.2,0,0.8S0.4,0,0.8,0h12.3c0.4,0,0.8,0.4,0.8,0.8S13.5,1.6,13.1,1.6z"/>
</g>
<g>
	<path class="st0" d="M13.1,6.9H0.8C0.4,6.9,0,6.6,0,6.1s0.4-0.8,0.8-0.8h12.3c0.4,0,0.8,0.4,0.8,0.8S13.5,6.9,13.1,6.9z"/>
</g>
<g>
	<path class="st0" d="M13.1,12.3H0.8c-0.4,0-0.8-0.4-0.8-0.8s0.4-0.8,0.8-0.8h12.3c0.4,0,0.8,0.4,0.8,0.8S13.5,12.3,13.1,12.3z"/>
</g>
</svg>
